<svg width="40" height="40" viewBox="0 0 40 40" fill="none" xmlns="http://www.w3.org/2000/svg">
<g clip-path="url(#clip0_115_17)">
<circle cx="20" cy="20" r="20" fill="#E1DECE"/>
<path d="M23.8321 14.583V13.1487C23.8321 13.0244 23.6892 12.9558 23.5927 13.0318L15.2282 19.5649C15.1572 19.6202 15.0997 19.691 15.0601 19.7719C15.0206 19.8527 15 19.9416 15 20.0316C15 20.1216 15.0206 20.2105 15.0601 20.2913C15.0997 20.3722 15.1572 20.443 15.2282 20.4982L23.5927 27.0314C23.691 27.1074 23.8321 27.0388 23.8321 26.9145V25.4802C23.8321 25.3893 23.7894 25.3021 23.7189 25.2464L17.0392 20.0325L23.7189 14.8168C23.7894 14.7611 23.8321 14.6739 23.8321 14.583Z" fill="#171717"/>
</g>
<defs>
<clipPath id="clip0_115_17">
<rect width="40" height="40" fill="white"/>
</clipPath>
</defs>
</svg>
