<svg width="343" height="171" viewBox="0 0 343 171" fill="none" xmlns="http://www.w3.org/2000/svg">
<path d="M-36.7305 65H-52.1113V1.01562H-36.7305V65ZM27.4297 65H12.0928L-10.583 25.1855V65H-26.0078V1.01562H-10.583L12.0488 40.8301V1.01562H27.4297V65ZM86.0967 12.9248H66.8926V65H51.4678V12.9248H32.6152V1.01562H86.0967V12.9248ZM132.327 37.8857H108.069V53.1348H136.722V65H92.6445V1.01562H136.81V12.9248H108.069V26.416H132.327V37.8857ZM166.78 42.4121H158.431V65H143.006V1.01562H168.187C175.774 1.01562 181.707 2.7002 185.984 6.06934C190.262 9.43848 192.4 14.1992 192.4 20.3516C192.4 24.8047 191.492 28.4961 189.676 31.4258C187.889 34.3555 185.076 36.7285 181.238 38.5449L194.598 64.3408V65H178.074L166.78 42.4121ZM158.431 30.5029H168.187C171.116 30.5029 173.313 29.7412 174.778 28.2178C176.272 26.665 177.02 24.5117 177.02 21.7578C177.02 19.0039 176.272 16.8506 174.778 15.2979C173.284 13.7158 171.087 12.9248 168.187 12.9248H158.431V30.5029ZM218.152 65H202.771V1.01562H218.152V65ZM283.06 34.3262C283.06 40.5664 281.902 46.0889 279.588 50.8936C277.273 55.6982 273.978 59.4043 269.7 62.0117C265.452 64.5898 260.604 65.8789 255.154 65.8789C249.705 65.8789 244.871 64.6338 240.652 62.1436C236.434 59.624 233.138 56.0352 230.765 51.377C228.421 46.7188 227.19 41.3721 227.073 35.3369V31.7334C227.073 25.4639 228.216 19.9414 230.501 15.166C232.815 10.3613 236.111 6.65527 240.389 4.04785C244.695 1.44043 249.588 0.136719 255.066 0.136719C260.486 0.136719 265.32 1.42578 269.568 4.00391C273.816 6.58203 277.112 10.2588 279.456 15.0342C281.829 19.7803 283.03 25.2295 283.06 31.3818V34.3262ZM267.371 31.6455C267.371 25.2881 266.302 20.4688 264.163 17.1875C262.054 13.877 259.021 12.2217 255.066 12.2217C247.332 12.2217 243.245 18.0225 242.806 29.624L242.762 34.3262C242.762 40.5957 243.802 45.415 245.882 48.7842C247.962 52.1533 251.053 53.8379 255.154 53.8379C259.051 53.8379 262.054 52.1826 264.163 48.8721C266.272 45.5615 267.342 40.8008 267.371 34.5898V31.6455ZM314.788 42.4121H306.438V65H291.014V1.01562H316.194C323.782 1.01562 329.715 2.7002 333.992 6.06934C338.27 9.43848 340.408 14.1992 340.408 20.3516C340.408 24.8047 339.5 28.4961 337.684 31.4258C335.896 34.3555 333.084 36.7285 329.246 38.5449L342.605 64.3408V65H326.082L314.788 42.4121ZM306.438 30.5029H316.194C319.124 30.5029 321.321 29.7412 322.786 28.2178C324.28 26.665 325.027 24.5117 325.027 21.7578C325.027 19.0039 324.28 16.8506 322.786 15.2979C321.292 13.7158 319.095 12.9248 316.194 12.9248H306.438V30.5029ZM-53.166 170V106.016H-32.5557C-26.9014 106.016 -21.8184 107.305 -17.3066 109.883C-12.7949 112.432 -9.2793 116.05 -6.75977 120.737C-4.21094 125.396 -2.92188 130.625 -2.89258 136.426V139.37C-2.89258 145.229 -4.1377 150.488 -6.62793 155.146C-9.08887 159.775 -12.5752 163.408 -17.0869 166.045C-21.5693 168.652 -26.5791 169.971 -32.1162 170H-53.166ZM-37.7412 117.925V158.135H-32.3799C-27.9561 158.135 -24.5576 156.567 -22.1846 153.433C-19.8115 150.269 -18.625 145.581 -18.625 139.37V136.602C-18.625 130.42 -19.8115 125.762 -22.1846 122.627C-24.5576 119.492 -28.0146 117.925 -32.5557 117.925H-37.7412ZM44.7002 142.886H20.4424V158.135H49.0947V170H5.01758V106.016H49.1826V117.925H20.4424V131.416H44.7002V142.886ZM88.3818 152.993C88.3818 150.737 87.5762 148.979 85.9648 147.72C84.3828 146.46 81.585 145.156 77.5713 143.809C73.5576 142.461 70.2764 141.157 67.7275 139.897C59.4365 135.825 55.291 130.229 55.291 123.11C55.291 119.565 56.3164 116.445 58.3672 113.75C60.4473 111.025 63.377 108.916 67.1562 107.422C70.9355 105.898 75.1836 105.137 79.9004 105.137C84.5 105.137 88.6162 105.957 92.249 107.598C95.9111 109.238 98.7529 111.582 100.774 114.629C102.796 117.646 103.807 121.104 103.807 125H88.4258C88.4258 122.393 87.6201 120.371 86.0088 118.936C84.4268 117.5 82.2734 116.782 79.5488 116.782C76.7949 116.782 74.6123 117.397 73.001 118.628C71.4189 119.829 70.6279 121.367 70.6279 123.242C70.6279 124.883 71.5068 126.377 73.2646 127.725C75.0225 129.043 78.1133 130.42 82.5371 131.855C86.9609 133.262 90.5938 134.785 93.4355 136.426C100.35 140.41 103.807 145.903 103.807 152.905C103.807 158.501 101.697 162.896 97.4785 166.089C93.2598 169.282 87.4736 170.879 80.1201 170.879C74.9346 170.879 70.2324 169.956 66.0137 168.11C61.8242 166.235 58.6602 163.687 56.5215 160.464C54.4121 157.212 53.3574 153.477 53.3574 149.258H68.8262C68.8262 152.686 69.7051 155.22 71.4629 156.86C73.25 158.472 76.1357 159.277 80.1201 159.277C82.6689 159.277 84.6758 158.735 86.1406 157.651C87.6348 156.538 88.3818 154.985 88.3818 152.993ZM128.152 170H112.771V106.016H128.152V170ZM191.258 162.09C188.885 164.727 185.413 166.851 180.843 168.462C176.272 170.073 171.263 170.879 165.813 170.879C157.435 170.879 150.74 168.315 145.73 163.188C140.721 158.062 138.04 150.928 137.688 141.787L137.645 136.25C137.645 129.951 138.758 124.458 140.984 119.771C143.211 115.054 146.39 111.436 150.521 108.916C154.681 106.367 159.485 105.093 164.935 105.093C172.903 105.093 179.085 106.924 183.479 110.586C187.903 114.219 190.481 119.653 191.214 126.89H176.36C175.833 123.315 174.69 120.767 172.933 119.243C171.175 117.72 168.685 116.958 165.462 116.958C161.595 116.958 158.606 118.599 156.497 121.88C154.388 125.161 153.318 129.849 153.289 135.942V139.81C153.289 146.196 154.373 151.001 156.541 154.224C158.738 157.417 162.181 159.014 166.868 159.014C170.882 159.014 173.87 158.12 175.833 156.333V146.401H165.11V135.811H191.258V162.09ZM253.66 170H238.323L215.647 130.186V170H200.223V106.016H215.647L238.279 145.83V106.016H253.66V170Z" fill="url(#paint0_linear_222_464)" fill-opacity="0.45"/>
<defs>
<linearGradient id="paint0_linear_222_464" x1="-95.4669" y1="-262" x2="202.715" y2="112.025" gradientUnits="userSpaceOnUse">
<stop stop-color="#555050"/>
<stop offset="0.983598" stop-color="#DED36D" stop-opacity="0"/>
</linearGradient>
</defs>
</svg>
