<svg width="376" height="171" viewBox="0 0 376 171" fill="none" xmlns="http://www.w3.org/2000/svg">
<path d="M-3.73047 65H-19.1113V1.01562H-3.73047V65ZM60.4297 65H45.0928L22.417 25.1855V65H6.99219V1.01562H22.417L45.0488 40.8301V1.01562H60.4297V65ZM119.097 12.9248H99.8926V65H84.4678V12.9248H65.6152V1.01562H119.097V12.9248ZM165.327 37.8857H141.069V53.1348H169.722V65H125.645V1.01562H169.81V12.9248H141.069V26.416H165.327V37.8857ZM199.78 42.4121H191.431V65H176.006V1.01562H201.187C208.774 1.01562 214.707 2.7002 218.984 6.06934C223.262 9.43848 225.4 14.1992 225.4 20.3516C225.4 24.8047 224.492 28.4961 222.676 31.4258C220.889 34.3555 218.076 36.7285 214.238 38.5449L227.598 64.3408V65H211.074L199.78 42.4121ZM191.431 30.5029H201.187C204.116 30.5029 206.313 29.7412 207.778 28.2178C209.272 26.665 210.02 24.5117 210.02 21.7578C210.02 19.0039 209.272 16.8506 207.778 15.2979C206.284 13.7158 204.087 12.9248 201.187 12.9248H191.431V30.5029ZM251.152 65H235.771V1.01562H251.152V65ZM316.06 34.3262C316.06 40.5664 314.902 46.0889 312.588 50.8936C310.273 55.6982 306.978 59.4043 302.7 62.0117C298.452 64.5898 293.604 65.8789 288.154 65.8789C282.705 65.8789 277.871 64.6338 273.652 62.1436C269.434 59.624 266.138 56.0352 263.765 51.377C261.421 46.7188 260.19 41.3721 260.073 35.3369V31.7334C260.073 25.4639 261.216 19.9414 263.501 15.166C265.815 10.3613 269.111 6.65527 273.389 4.04785C277.695 1.44043 282.588 0.136719 288.066 0.136719C293.486 0.136719 298.32 1.42578 302.568 4.00391C306.816 6.58203 310.112 10.2588 312.456 15.0342C314.829 19.7803 316.03 25.2295 316.06 31.3818V34.3262ZM300.371 31.6455C300.371 25.2881 299.302 20.4688 297.163 17.1875C295.054 13.877 292.021 12.2217 288.066 12.2217C280.332 12.2217 276.245 18.0225 275.806 29.624L275.762 34.3262C275.762 40.5957 276.802 45.415 278.882 48.7842C280.962 52.1533 284.053 53.8379 288.154 53.8379C292.051 53.8379 295.054 52.1826 297.163 48.8721C299.272 45.5615 300.342 40.8008 300.371 34.5898V31.6455ZM347.788 42.4121H339.438V65H324.014V1.01562H349.194C356.782 1.01562 362.715 2.7002 366.992 6.06934C371.27 9.43848 373.408 14.1992 373.408 20.3516C373.408 24.8047 372.5 28.4961 370.684 31.4258C368.896 34.3555 366.084 36.7285 362.246 38.5449L375.605 64.3408V65H359.082L347.788 42.4121ZM339.438 30.5029H349.194C352.124 30.5029 354.321 29.7412 355.786 28.2178C357.28 26.665 358.027 24.5117 358.027 21.7578C358.027 19.0039 357.28 16.8506 355.786 15.2979C354.292 13.7158 352.095 12.9248 349.194 12.9248H339.438V30.5029ZM-20.166 170V106.016H0.444336C6.09863 106.016 11.1816 107.305 15.6934 109.883C20.2051 112.432 23.7207 116.05 26.2402 120.737C28.7891 125.396 30.0781 130.625 30.1074 136.426V139.37C30.1074 145.229 28.8623 150.488 26.3721 155.146C23.9111 159.775 20.4248 163.408 15.9131 166.045C11.4307 168.652 6.4209 169.971 0.883789 170H-20.166ZM-4.74121 117.925V158.135H0.620117C5.04395 158.135 8.44238 156.567 10.8154 153.433C13.1885 150.269 14.375 145.581 14.375 139.37V136.602C14.375 130.42 13.1885 125.762 10.8154 122.627C8.44238 119.492 4.98535 117.925 0.444336 117.925H-4.74121ZM77.7002 142.886H53.4424V158.135H82.0947V170H38.0176V106.016H82.1826V117.925H53.4424V131.416H77.7002V142.886ZM121.382 152.993C121.382 150.737 120.576 148.979 118.965 147.72C117.383 146.46 114.585 145.156 110.571 143.809C106.558 142.461 103.276 141.157 100.728 139.897C92.4365 135.825 88.291 130.229 88.291 123.11C88.291 119.565 89.3164 116.445 91.3672 113.75C93.4473 111.025 96.377 108.916 100.156 107.422C103.936 105.898 108.184 105.137 112.9 105.137C117.5 105.137 121.616 105.957 125.249 107.598C128.911 109.238 131.753 111.582 133.774 114.629C135.796 117.646 136.807 121.104 136.807 125H121.426C121.426 122.393 120.62 120.371 119.009 118.936C117.427 117.5 115.273 116.782 112.549 116.782C109.795 116.782 107.612 117.397 106.001 118.628C104.419 119.829 103.628 121.367 103.628 123.242C103.628 124.883 104.507 126.377 106.265 127.725C108.022 129.043 111.113 130.42 115.537 131.855C119.961 133.262 123.594 134.785 126.436 136.426C133.35 140.41 136.807 145.903 136.807 152.905C136.807 158.501 134.697 162.896 130.479 166.089C126.26 169.282 120.474 170.879 113.12 170.879C107.935 170.879 103.232 169.956 99.0137 168.11C94.8242 166.235 91.6602 163.687 89.5215 160.464C87.4121 157.212 86.3574 153.477 86.3574 149.258H101.826C101.826 152.686 102.705 155.22 104.463 156.86C106.25 158.472 109.136 159.277 113.12 159.277C115.669 159.277 117.676 158.735 119.141 157.651C120.635 156.538 121.382 154.985 121.382 152.993ZM161.152 170H145.771V106.016H161.152V170ZM224.258 162.09C221.885 164.727 218.413 166.851 213.843 168.462C209.272 170.073 204.263 170.879 198.813 170.879C190.435 170.879 183.74 168.315 178.73 163.188C173.721 158.062 171.04 150.928 170.688 141.787L170.645 136.25C170.645 129.951 171.758 124.458 173.984 119.771C176.211 115.054 179.39 111.436 183.521 108.916C187.681 106.367 192.485 105.093 197.935 105.093C205.903 105.093 212.085 106.924 216.479 110.586C220.903 114.219 223.481 119.653 224.214 126.89H209.36C208.833 123.315 207.69 120.767 205.933 119.243C204.175 117.72 201.685 116.958 198.462 116.958C194.595 116.958 191.606 118.599 189.497 121.88C187.388 125.161 186.318 129.849 186.289 135.942V139.81C186.289 146.196 187.373 151.001 189.541 154.224C191.738 157.417 195.181 159.014 199.868 159.014C203.882 159.014 206.87 158.12 208.833 156.333V146.401H198.11V135.811H224.258V162.09ZM286.66 170H271.323L248.647 130.186V170H233.223V106.016H248.647L271.279 145.83V106.016H286.66V170Z" fill="url(#paint0_linear_222_106)" fill-opacity="0.45"/>
<defs>
<linearGradient id="paint0_linear_222_106" x1="-62.4669" y1="-262" x2="235.715" y2="112.025" gradientUnits="userSpaceOnUse">
<stop stop-color="#555050"/>
<stop offset="0.983598" stop-color="#DED36D" stop-opacity="0"/>
</linearGradient>
</defs>
</svg>
